<?xml version="1.0" standalone="no"?>
<!DOCTYPE svg PUBLIC "-//W3C//DTD SVG 20010904//EN"
 "http://www.w3.org/TR/2001/REC-SVG-20010904/DTD/svg10.dtd">
<svg version="1.0" xmlns="http://www.w3.org/2000/svg"
 width="700.000000pt" height="700.000000pt" viewBox="0 0 700.000000 700.000000"
 preserveAspectRatio="xMidYMid meet">
<metadata>
Created by potrace 1.11, written by Peter Selinger 2001-2013
</metadata>
<g transform="translate(0.000000,700.000000) scale(0.100000,-0.100000)"
fill="#000000" stroke="none">
<path d="M3365 6980 c-85 -25 -178 -64 -236 -100 -27 -16 -52 -30 -55 -30 -14
0 -238 -158 -495 -351 -157 -118 -297 -222 -310 -231 -59 -41 -294 -213 -299
-217 -3 -4 -27 -22 -55 -41 -27 -19 -51 -38 -53 -42 -2 -4 -8 -8 -13 -8 -5 0
-17 -7 -26 -15 -10 -8 -52 -39 -93 -69 -41 -30 -100 -73 -130 -95 -30 -22
-137 -100 -236 -173 -488 -357 -1042 -773 -1064 -797 -3 -4 -25 -21 -50 -40
-90 -68 -171 -185 -219 -314 l-26 -72 -2 -1900 c-3 -2074 -6 -1960 52 -2092
68 -152 213 -292 360 -346 121 -44 -36 -42 3090 -42 l2960 0 82 28 c45 16 98
39 118 53 20 13 39 24 42 24 3 0 30 21 59 46 108 91 185 220 218 359 14 63 15
252 13 1960 -1 1040 -6 1903 -10 1918 -34 124 -81 215 -150 293 -87 97 -510
418 -1477 1124 -206 150 -404 295 -440 321 -67 49 -168 122 -336 244 -53 39
-106 78 -118 87 -37 31 -40 33 -76 58 -19 13 -37 27 -40 30 -3 4 -50 40 -105
81 -259 194 -411 283 -578 340 -83 29 -220 33 -302 9z m-2289 -3626 c22 -16
43 -32 49 -37 66 -50 515 -377 1015 -740 345 -251 413 -301 458 -338 7 -5 79
-59 160 -120 81 -60 152 -112 157 -117 27 -20 148 -94 210 -129 275 -152 436
-159 695 -29 120 60 270 159 475 315 88 67 255 190 370 275 613 447 998 728
1065 776 41 30 77 57 80 60 16 16 120 89 147 103 68 36 118 15 177 -73 17 -26
48 -72 68 -101 20 -30 39 -65 41 -79 7 -37 -19 -92 -56 -117 -33 -23 -325
-236 -342 -251 -13 -10 -571 -416 -786 -572 -57 -41 -108 -78 -114 -82 -370
-276 -475 -355 -500 -375 -239 -188 -574 -359 -785 -398 -19 -4 -82 -8 -139
-10 -164 -4 -311 31 -496 119 -112 53 -304 165 -339 198 -11 10 -23 18 -27 18
-3 0 -53 35 -110 78 -57 43 -180 135 -274 205 -93 70 -174 131 -180 135 -5 4
-41 30 -80 57 -38 27 -72 52 -75 55 -3 3 -45 34 -95 70 -49 35 -130 94 -180
130 -352 259 -600 440 -755 550 -126 90 -163 135 -154 188 7 34 129 216 168
248 39 34 97 29 152 -12z"/>
</g>
</svg>
